<svg id="Layer_1" data-name="Layer 1" xmlns="http://www.w3.org/2000/svg" viewBox="0 0 783.74 706.89"><path d="M573.3,608a216.78,216.78,0,0,0,12.63,41l3.48-15.55s14.77-14.8,30.34-5.95a13.52,13.52,0,0,1,1.34,1.17q3.74,9.28,8,18.27c.21,3.13-.41,8.36-3.46,17l-10.93,36.59a217.71,217.71,0,0,0,23.66,35.75l-1-15.9s10-18.36,27.44-14.25a13.19,13.19,0,0,1,1.74.82q6.07,7.68,12.62,15c1.13,2.91,2.06,8.12,1.57,17.55l-.18,38.19a217.19,217.19,0,0,0,32.76,27.64l-5.47-15s4.43-20.43,22.32-21.4a15.21,15.21,0,0,1,1.85.27c5.36,3.83,10.85,7.46,16.44,10.94,1.89,2.49,4.23,7.23,6.39,16.3l10.57,36.69a217.51,217.51,0,0,0,39.24,17.31l-9.48-12.83s-1.51-20.86,15.39-26.83a16.56,16.56,0,0,1,1.75-.24q9.4,3.24,19.05,5.9c2.51,1.9,6,5.8,10.63,13.8l20.48,32.22A217,217,0,0,0,905,868l-12.7-9.63s-7.32-19.58,7.21-30.06a12.42,12.42,0,0,1,1.78-.8q7.31.33,14.67.34c1.63,0,3.25,0,4.88-.06,2.93,1.05,7.48,3.77,14.3,10.32l28.73,25.16a218.24,218.24,0,0,0,42.35-6.66l-14.89-5.67s-12.55-16.73-1.56-30.89a17.13,17.13,0,0,1,1.38-1.18q9.76-2.37,19.26-5.29c3.14.25,8.21,1.63,16.33,5.85l34.64,16a217.73,217.73,0,0,0,38.77-18.32l-15.89-1.24s-16.75-12.52-10.19-29.2a13.24,13.24,0,0,1,1-1.52q8.57-5,16.79-10.46c3-.68,8.32-.82,17.49,1l37.76,5.63a217.45,217.45,0,0,0,32-28.5l-15.59,3.29s-19.6-7.29-18-25.14a14.24,14.24,0,0,1,.57-1.86q6.75-7.1,13.05-14.61c2.72-1.53,7.74-3.18,17.14-4l37.82-5.22a217.94,217.94,0,0,0,22.72-36.37l-14,7.53s-20.86-1.47-24.36-19a15.92,15.92,0,0,1,0-1.79c3-5.88,5.89-11.89,8.55-18,2.23-2.22,6.6-5.17,15.18-8.56L1257,613.37a198.34,198.34,0,0,0,7.83-24.3H585.57Z" transform="translate(-523.34 -161.11)" style="fill:#850003"/><path d="M836.39,607.64l-12.8,86H812l-9.42-55.79h-.24L793,693.62H781.45l-12.8-86h13l6.16,54.58h.24l9.66-54.58h9.42l10,55.91h.25l5.91-55.91Z" transform="translate(-523.34 -161.11)" style="fill:#fff"/><path d="M860.06,627.93a22.12,22.12,0,0,1,1.81-9.18,19.3,19.3,0,0,1,4.84-6.64,20.45,20.45,0,0,1,6.58-3.87,21.89,21.89,0,0,1,21.55,3.87,20.23,20.23,0,0,1,4.71,6.64,22,22,0,0,1,1.81,9.18v45.4a21.7,21.7,0,0,1-1.81,9.3,19.2,19.2,0,0,1-4.71,6.4,20.74,20.74,0,0,1-6.7,4,21.39,21.39,0,0,1-14.85,0,19.41,19.41,0,0,1-6.58-4,18.36,18.36,0,0,1-4.84-6.4,21.85,21.85,0,0,1-1.81-9.3Zm12.32,45.4q0,4.47,2.48,6.59a9.18,9.18,0,0,0,11.71,0q2.48-2.11,2.48-6.59v-45.4q0-4.47-2.48-6.59a9.18,9.18,0,0,0-11.71,0q-2.48,2.11-2.48,6.59Z" transform="translate(-523.34 -161.11)" style="fill:#fff"/><path d="M929.62,627.93a22.12,22.12,0,0,1,1.81-9.18,19.41,19.41,0,0,1,4.83-6.64,20.6,20.6,0,0,1,6.59-3.87,21.39,21.39,0,0,1,14.85,0,22,22,0,0,1,6.7,3.87,20.23,20.23,0,0,1,4.71,6.64,22,22,0,0,1,1.81,9.18v45.4a21.7,21.7,0,0,1-1.81,9.3,19.2,19.2,0,0,1-4.71,6.4,20.84,20.84,0,0,1-6.7,4,21.39,21.39,0,0,1-14.85,0,19.55,19.55,0,0,1-6.59-4,18.45,18.45,0,0,1-4.83-6.4,21.85,21.85,0,0,1-1.81-9.3Zm12.32,45.4q0,4.47,2.47,6.59a9.19,9.19,0,0,0,11.72,0q2.48-2.11,2.47-6.59v-45.4q0-4.47-2.47-6.59a9.19,9.19,0,0,0-11.72,0q-2.48,2.11-2.47,6.59Z" transform="translate(-523.34 -161.11)" style="fill:#fff"/><path d="M999.9,693.62v-86h18.24q10.62,0,16.12,5.8t5.5,16.42v40.21q0,12.07-5.86,17.81t-16.85,5.74Zm12.32-74.39V682h5.68q5.19,0,7.36-2.6t2.18-8.15V629.86q0-5.07-2.06-7.85t-7.48-2.78Z" transform="translate(-523.34 -161.11)" style="fill:#fff"/><path d="M770.56,760.71V714.85h9.85a14.69,14.69,0,0,1,4.77.71,9.3,9.3,0,0,1,3.74,2.51,9.93,9.93,0,0,1,2.31,4.22,26.32,26.32,0,0,1,.65,6.54,32,32,0,0,1-.36,5.22,10.91,10.91,0,0,1-1.51,4,9.57,9.57,0,0,1-3.61,3.51,12.07,12.07,0,0,1-5.92,1.26h-3.35v17.9ZM777.13,721v15.58h3.16a6.66,6.66,0,0,0,3.09-.58,3.63,3.63,0,0,0,1.61-1.61,6,6,0,0,0,.61-2.38c.06-.94.1-2,.1-3.16s0-2.09-.07-3.06a6.63,6.63,0,0,0-.58-2.54,3.62,3.62,0,0,0-1.54-1.67,6.13,6.13,0,0,0-3-.58Z" transform="translate(-523.34 -161.11)" style="fill:#fff"/><path d="M806.43,760.71V714.85H817q11.6,0,11.59,13.46a16.94,16.94,0,0,1-1.26,6.9,9.71,9.71,0,0,1-4.41,4.57L830,760.71h-7l-6.12-19.58H813v19.58ZM813,721v14.29h3.74a6.66,6.66,0,0,0,2.77-.48,3.81,3.81,0,0,0,1.61-1.38,6.37,6.37,0,0,0,.71-2.22,24.74,24.74,0,0,0,0-6.12,6.08,6.08,0,0,0-.78-2.29c-.81-1.2-2.36-1.8-4.63-1.8Z" transform="translate(-523.34 -161.11)" style="fill:#fff"/><path d="M843.15,725.67a11.79,11.79,0,0,1,1-4.89,10.26,10.26,0,0,1,2.58-3.54,10.69,10.69,0,0,1,3.51-2.06,11.68,11.68,0,0,1,11.49,2.06,10.81,10.81,0,0,1,2.52,3.54,11.79,11.79,0,0,1,1,4.89v24.22a11.67,11.67,0,0,1-1,5,10.35,10.35,0,0,1-2.52,3.41,10.86,10.86,0,0,1-3.57,2.13,11.4,11.4,0,0,1-7.92,0,10.22,10.22,0,0,1-3.51-2.13,9.84,9.84,0,0,1-2.58-3.41,11.67,11.67,0,0,1-1-5Zm6.56,24.22A4.36,4.36,0,0,0,851,753.4a4.89,4.89,0,0,0,6.25,0,4.36,4.36,0,0,0,1.32-3.51V725.67a4.39,4.39,0,0,0-1.32-3.51,4.92,4.92,0,0,0-6.25,0,4.39,4.39,0,0,0-1.32,3.51Z" transform="translate(-523.34 -161.11)" style="fill:#fff"/><path d="M880.63,760.71V714.85h9.72q5.67,0,8.6,3.1c2,2.06,2.93,5,2.93,8.75v21.45q0,6.45-3.12,9.5t-9,3.06ZM887.2,721v33.49h3c1.84,0,3.15-.46,3.92-1.39a6.64,6.64,0,0,0,1.16-4.34V726.7a6.93,6.93,0,0,0-1.09-4.18c-.73-1-2.06-1.48-4-1.48Z" transform="translate(-523.34 -161.11)" style="fill:#fff"/><path d="M939,714.85v35.56a10.33,10.33,0,0,1-3.09,7.53,10.91,10.91,0,0,1-3.41,2.32,10.27,10.27,0,0,1-4.13.84,10,10,0,0,1-4.09-.84,11.21,11.21,0,0,1-5.7-5.7,10.32,10.32,0,0,1-.83-4.15V714.85h6.57v34.91a4.9,4.9,0,0,0,1.16,3.61,4.19,4.19,0,0,0,5.79,0,4.94,4.94,0,0,0,1.16-3.61V714.85Z" transform="translate(-523.34 -161.11)" style="fill:#fff"/><path d="M975.69,747.64v2.83a10.35,10.35,0,0,1-.8,4,11.23,11.23,0,0,1-2.23,3.38,10.67,10.67,0,0,1-3.31,2.35,9.72,9.72,0,0,1-4.09.87,14.85,14.85,0,0,1-3.8-.52,8.91,8.91,0,0,1-3.48-1.8,10,10,0,0,1-2.54-3.32,11.66,11.66,0,0,1-1-5.18V725a11.31,11.31,0,0,1,.77-4.19,10.13,10.13,0,0,1,2.19-3.35,10.24,10.24,0,0,1,3.38-2.22,11.5,11.5,0,0,1,4.35-.8,10,10,0,0,1,7.53,3,10.79,10.79,0,0,1,2.23,3.51,12.06,12.06,0,0,1,.8,4.42V728h-6.57V725.8a5.32,5.32,0,0,0-1.09-3.35,3.56,3.56,0,0,0-3-1.41c-1.63,0-2.71.5-3.25,1.51a8.08,8.08,0,0,0-.8,3.83v23.45a6.09,6.09,0,0,0,.87,3.35,3.42,3.42,0,0,0,3.12,1.35,4.74,4.74,0,0,0,1.38-.23,4,4,0,0,0,1.39-.74,3.83,3.83,0,0,0,1-1.42,5.87,5.87,0,0,0,.38-2.25v-2.25Z" transform="translate(-523.34 -161.11)" style="fill:#fff"/><path d="M995,760.71V721h-7.6v-6.19h21.77V721h-7.6v39.67Z" transform="translate(-523.34 -161.11)" style="fill:#fff"/><path d="M1043,728.06h-6.57v-1.48a7,7,0,0,0-1.07-3.9,3.92,3.92,0,0,0-3.57-1.64,4.18,4.18,0,0,0-2.19.51,4.39,4.39,0,0,0-1.35,1.29,5.35,5.35,0,0,0-.71,1.9,12.3,12.3,0,0,0-.2,2.22c0,.9,0,1.66.1,2.26a4.39,4.39,0,0,0,.48,1.61,3.63,3.63,0,0,0,1.13,1.22,10.23,10.23,0,0,0,2,1l5,2a12.7,12.7,0,0,1,3.55,2,8.38,8.38,0,0,1,2.12,2.61,12.2,12.2,0,0,1,1,3.51,35,35,0,0,1,.26,4.48,23.89,23.89,0,0,1-.58,5.37,11.33,11.33,0,0,1-1.87,4.22,9.25,9.25,0,0,1-3.55,2.84,12.59,12.59,0,0,1-5.34,1,11.62,11.62,0,0,1-4.44-.84,10.56,10.56,0,0,1-3.55-2.32,11.24,11.24,0,0,1-2.35-3.44,10.48,10.48,0,0,1-.87-4.29v-2.44H1027v2.06a5.42,5.42,0,0,0,1.06,3.25,4.17,4.17,0,0,0,3.58,1.45,5.64,5.64,0,0,0,2.61-.49,3.51,3.51,0,0,0,1.45-1.38,5.21,5.21,0,0,0,.61-2.16c.06-.83.1-1.77.1-2.8a29.29,29.29,0,0,0-.13-3,5.09,5.09,0,0,0-.52-1.87,3.67,3.67,0,0,0-1.19-1.16,15,15,0,0,0-2-1l-4.71-1.94q-4.25-1.74-5.7-4.6a15.93,15.93,0,0,1-1.45-7.18,16.78,16.78,0,0,1,.71-4.9,11.24,11.24,0,0,1,2.13-4,9.64,9.64,0,0,1,3.44-2.67,11.47,11.47,0,0,1,5-1,10.88,10.88,0,0,1,4.47.9,11.4,11.4,0,0,1,3.51,2.38,9.94,9.94,0,0,1,3,7.09Z" transform="translate(-523.34 -161.11)" style="fill:#fff"/><path d="M629,567.36l-5.83-19.52H574.66l-5.84,19.52H523.34l50.52-138.47h51.72L676.1,567.36Zm-45.08-50.52h30l-14.49-49.31h-.81Z" transform="translate(-523.34 -161.11)" style="fill:#fff"/><path d="M777.06,464.31V567.36H732.58v-103H687.09V428.89H822.34v35.42Z" transform="translate(-523.34 -161.11)" style="fill:#fff"/><path d="M857.81,428.89h44.48V531.94h71v35.42H857.81Z" transform="translate(-523.34 -161.11)" style="fill:#fff"/><path d="M1110.86,567.36,1105,547.84h-48.5l-5.84,19.52h-45.49l50.52-138.47h51.73L1158,567.36Zm-45.09-50.52h30l-14.49-49.31h-.8Z" transform="translate(-523.34 -161.11)" style="fill:#fff"/><path d="M1285.74,437.24q17.12,10.77,17.51,31.9v2.42h-41.66v-.81a13,13,0,0,0-4.43-10.06q-4.42-4-13.48-4-8.87,0-13.59,2.62t-4.73,6.44q0,5.43,6.44,8t20.73,5.43a225.51,225.51,0,0,1,27.48,7.15,46.9,46.9,0,0,1,18.82,12.17q8,8.46,8.25,23,0,24.56-16.61,36.43t-44.38,11.87q-32.4,0-50.42-10.86t-18-38.45h42.07q0,10.47,5.43,14t16.91,3.52a45.58,45.58,0,0,0,14-1.81c3.69-1.2,5.54-3.69,5.54-7.44q0-5-6.14-7.55t-20-5.34a230.12,230.12,0,0,1-28-7.54,47.2,47.2,0,0,1-19.32-13q-8.27-9-8.26-24.55,0-22.74,17.62-33.51t44.58-10.77Q1268.64,426.47,1285.74,437.24Z" transform="translate(-523.34 -161.11)" style="fill:#fff"/><path d="M632,353.15,735.87,353A374.1,374.1,0,0,0,715,404h30.45a354.51,354.51,0,0,1,22.81-51.06L898,352.71V404h31.9V352.66l124.08-.21a362.57,362.57,0,0,1,22.1,51.53h29.18a383.42,383.42,0,0,0-20.3-51.58l114.39-.19A309.19,309.19,0,0,1,1222.46,404h29.28c-43.63-140.38-177.67-242.87-335.81-242.87S623.75,263.6,580.12,404h29.27A307.53,307.53,0,0,1,632,353.15Zm544-36.54-110.24.18a491.07,491.07,0,0,0-48.8-67.27,568.68,568.68,0,0,0-58.2-58.46A324.76,324.76,0,0,1,1176,316.61ZM929.87,202.73C955.15,223.59,997.74,263,1033,316.85L929.87,317ZM898,317.07l-107.9.18c36.86-54,81.46-93.61,107.9-114.52ZM866.82,191.92a580.74,580.74,0,0,0-59.72,57.6,492.59,492.59,0,0,0-51.25,67.78l-100.62.17A324.57,324.57,0,0,1,866.82,191.92Z" transform="translate(-523.34 -161.11)" style="fill:#fff"/></svg>