<svg xmlns="http://www.w3.org/2000/svg" viewBox="0 0 876.14 790.23">
	<path d="M905.7,735.33q2.77-2.37,2.77-7.36V677.21q0-5-2.77-7.36a10.26,10.26,0,0,0-13.09,0q-2.77,2.37-2.77,7.36V728q0,5,2.77,7.36a10.26,10.26,0,0,0,13.09,0Z" transform="translate(-499.64 -152)"/>
	<path d="M986.23,677.21c0-3.33-.93-5.78-2.77-7.36a10.26,10.26,0,0,0-13.09,0q-2.77,2.37-2.77,7.36V728q0,5,2.77,7.36a10.26,10.26,0,0,0,13.09,0c1.84-1.58,2.77-4,2.77-7.36Z" transform="translate(-499.64 -152)"/>
	<path d="M832.46,783.31q-1.37-2-5.18-2h-3.82v16h4.18a7.38,7.38,0,0,0,3.09-.54,4.2,4.2,0,0,0,1.8-1.55,6.83,6.83,0,0,0,.79-2.48,26.69,26.69,0,0,0,0-6.84A6.79,6.79,0,0,0,832.46,783.31Z" transform="translate(-499.64 -152)"/>
	<path d="M869.47,781.3a5.18,5.18,0,0,0-3.49,1.26,4.85,4.85,0,0,0-1.48,3.92v27.07a4.87,4.87,0,0,0,1.48,3.93,5.46,5.46,0,0,0,7,0,4.9,4.9,0,0,0,1.48-3.93V786.48a4.88,4.88,0,0,0-1.48-3.92A5.2,5.2,0,0,0,869.47,781.3Z" transform="translate(-499.64 -152)"/>
	<path d="M909.79,781.3H906.4v37.44h3.39c2.06,0,3.53-.52,4.39-1.55a7.51,7.51,0,0,0,1.3-4.86v-24.7a7.75,7.75,0,0,0-1.23-4.68Q913,781.3,909.79,781.3Z" transform="translate(-499.64 -152)"/>
	<path d="M1052.51,667.49h-6.34v70.2h6.34q5.81,0,8.24-2.9t2.43-9.12v-46.3q0-5.67-2.3-8.78T1052.51,667.49Z" transform="translate(-499.64 -152)"/>
	<path d="M1265,684.67c2.49-2.48,7.37-5.78,17-9.57l38.92-17.52a222.14,222.14,0,0,0,8.75-27.16H570.33l-13.72,21.14a242.73,242.73,0,0,0,14.12,45.79L574.62,680s16.51-16.54,33.93-6.65a17.61,17.61,0,0,1,1.49,1.31q4.17,10.38,9,20.43c.24,3.5-.45,9.33-3.86,19.06L602.91,755a242.87,242.87,0,0,0,26.44,40L628.2,777.2s11.17-20.53,30.67-15.93a14.54,14.54,0,0,1,1.94.91q6.81,8.6,14.11,16.75c1.27,3.25,2.3,9.08,1.76,19.62l-.21,42.69a242.85,242.85,0,0,0,36.63,30.9L707,855.41s4.94-22.84,24.94-23.93a17,17,0,0,1,2.07.31q9,6.4,18.38,12.22c2.12,2.78,4.73,8.08,7.15,18.23l11.81,41a243.67,243.67,0,0,0,43.87,19.34l-10.59-14.34s-1.7-23.31,17.2-30a17.79,17.79,0,0,1,1.95-.27q10.51,3.63,21.3,6.6c2.81,2.12,6.76,6.48,11.88,15.42l22.9,36a242,242,0,0,0,47.53,6.19l-14.2-10.76s-8.18-21.89,8.06-33.61a13.18,13.18,0,0,1,2-.89c5.44.24,10.91.38,16.4.38,1.82,0,3.64,0,5.45-.07,3.28,1.18,8.37,4.21,16,11.54L993.19,937a243.59,243.59,0,0,0,47.35-7.45l-16.65-6.34s-14-18.71-1.74-34.53a17.06,17.06,0,0,1,1.54-1.32q10.9-2.64,21.53-5.91c3.51.27,9.18,1.82,18.25,6.54l38.72,17.93a242.6,242.6,0,0,0,43.34-20.48L1127.77,884s-18.72-14-11.39-32.64a15.94,15.94,0,0,1,1.12-1.7q9.57-5.56,18.77-11.69c3.41-.77,9.3-.92,19.55,1.09l42.22,6.3a243.32,243.32,0,0,0,35.81-31.86l-17.43,3.68s-21.91-8.16-20.13-28.12a16.94,16.94,0,0,1,.63-2.07q7.56-7.92,14.59-16.34c3-1.7,8.66-3.54,19.17-4.51L1273,760.3a243.11,243.11,0,0,0,25.39-40.65l-15.7,8.42s-23.31-1.64-27.22-21.3a16.8,16.8,0,0,1,0-2Q1260.54,694.9,1265,684.67ZM799.45,795.84a12.36,12.36,0,0,1-1.69,4.46,10.85,10.85,0,0,1-4,3.93,13.68,13.68,0,0,1-6.63,1.4h-3.74v20H776V774.38h11a16.37,16.37,0,0,1,5.33.8,10.2,10.2,0,0,1,4.17,2.8,11,11,0,0,1,2.59,4.72,29.45,29.45,0,0,1,.73,7.31A36.64,36.64,0,0,1,799.45,795.84Zm35.24,29.81-6.84-21.89h-4.39v21.89h-7.34V774.38h11.8q13,0,13,15a18.94,18.94,0,0,1-1.4,7.71,10.93,10.93,0,0,1-4.93,5.11l7.92,23.4Zm.61-75h-13l-10.53-62.37h-.27l-10.39,62.37h-13l-14.31-96.12h14.58l6.88,61h.27l10.8-61h10.53L828.15,717h.27l6.61-62.5h14.58Zm46.48,62.9a13,13,0,0,1-1.08,5.55,11.53,11.53,0,0,1-2.81,3.81,12.34,12.34,0,0,1-4,2.38,12.82,12.82,0,0,1-8.86,0,11.53,11.53,0,0,1-3.92-2.38,11,11,0,0,1-2.88-3.81,13,13,0,0,1-1.08-5.55V786.48a13.09,13.09,0,0,1,1.08-5.47,11.45,11.45,0,0,1,2.88-4,12.19,12.19,0,0,1,3.92-2.31,13,13,0,0,1,12.85,2.31,12,12,0,0,1,2.81,4,13.09,13.09,0,0,1,1.08,5.47Zm1.71-68a20.63,20.63,0,0,1-5.4-7.16,24.31,24.31,0,0,1-2-10.39V677.21a24.56,24.56,0,0,1,2-10.26,21.7,21.7,0,0,1,5.4-7.43,22.89,22.89,0,0,1,7.36-4.32,24.5,24.5,0,0,1,24.1,4.32,22.62,22.62,0,0,1,5.26,7.43,24.56,24.56,0,0,1,2,10.26V728a24.31,24.31,0,0,1-2,10.39,21.45,21.45,0,0,1-5.26,7.16,23.18,23.18,0,0,1-7.49,4.45,23.89,23.89,0,0,1-16.61,0A21.71,21.71,0,0,1,883.49,745.52Zm39.33,66.09q0,7.2-3.49,10.62t-10.05,3.42H899.06V774.38h10.87q6.35,0,9.61,3.46t3.28,9.79Zm41.47,2.52a11.63,11.63,0,0,1-3.45,8.42,12.13,12.13,0,0,1-3.82,2.59,11.38,11.38,0,0,1-4.61.94,11.13,11.13,0,0,1-4.57-.94,12.07,12.07,0,0,1-3.78-2.59,12.24,12.24,0,0,1-2.59-3.78,11.25,11.25,0,0,1-.94-4.64V774.38h7.35v39a5.51,5.51,0,0,0,1.29,4,4.69,4.69,0,0,0,6.48,0,5.47,5.47,0,0,0,1.3-4v-39h7.34ZM968.61,750a21.71,21.71,0,0,1-7.36-4.45,20.63,20.63,0,0,1-5.4-7.16,24.31,24.31,0,0,1-2-10.39V677.21a24.56,24.56,0,0,1,2-10.26,21.7,21.7,0,0,1,5.4-7.43,22.89,22.89,0,0,1,7.36-4.32,24.5,24.5,0,0,1,24.1,4.32A22.62,22.62,0,0,1,998,667a24.56,24.56,0,0,1,2,10.26V728a24.31,24.31,0,0,1-2,10.39,21.45,21.45,0,0,1-5.26,7.16,23.18,23.18,0,0,1-7.49,4.45,23.89,23.89,0,0,1-16.61,0Zm36.72,39.1H998v-2.45a5.92,5.92,0,0,0-1.23-3.74,3.94,3.94,0,0,0-3.31-1.58c-1.82,0-3,.56-3.63,1.69a8.93,8.93,0,0,0-.9,4.28v26.21a6.73,6.73,0,0,0,1,3.74,3.83,3.83,0,0,0,3.49,1.52,5.29,5.29,0,0,0,1.55-.26,3.81,3.81,0,0,0,2.63-2.41,6.55,6.55,0,0,0,.43-2.52V811h7.34v3.17a11.44,11.44,0,0,1-.9,4.5,12.45,12.45,0,0,1-2.48,3.78,12.09,12.09,0,0,1-3.71,2.63,10.83,10.83,0,0,1-4.57,1,16.22,16.22,0,0,1-4.25-.58,10,10,0,0,1-3.89-2,11.14,11.14,0,0,1-2.84-3.71,13,13,0,0,1-1.12-5.8V785.76a12.41,12.41,0,0,1,.87-4.68,10.92,10.92,0,0,1,2.44-3.74,11.41,11.41,0,0,1,3.78-2.49,12.74,12.74,0,0,1,4.86-.9,11.13,11.13,0,0,1,8.43,3.39,12.07,12.07,0,0,1,2.48,3.92,13.26,13.26,0,0,1,.9,4.93Zm37.44-7.77h-8.49v44.35h-7.35V781.3h-8.49v-6.92h24.33Zm-10.37-30.65V654.53h20.38q11.88,0,18,6.48t6.14,18.36v45q0,13.5-6.55,19.92t-18.83,6.41Zm48.17,38.49h-7.34v-1.65a7.89,7.89,0,0,0-1.19-4.36,4.41,4.41,0,0,0-4-1.83,4.68,4.68,0,0,0-2.45.57,5.07,5.07,0,0,0-1.51,1.44,6.1,6.1,0,0,0-.79,2.13,14.21,14.21,0,0,0-.22,2.48,24.79,24.79,0,0,0,.11,2.52,4.73,4.73,0,0,0,.54,1.8,4.09,4.09,0,0,0,1.26,1.37,11.55,11.55,0,0,0,2.27,1.15l5.62,2.23a14.13,14.13,0,0,1,4,2.2,9.53,9.53,0,0,1,2.37,2.91,13.56,13.56,0,0,1,1.08,3.93,39.08,39.08,0,0,1,.29,5,26.43,26.43,0,0,1-.65,6,12.67,12.67,0,0,1-2.09,4.72,10.3,10.3,0,0,1-4,3.17,14.06,14.06,0,0,1-6,1.15,13,13,0,0,1-5-.94,11.58,11.58,0,0,1-4-2.59,12.72,12.72,0,0,1-2.63-3.85,11.65,11.65,0,0,1-1-4.79v-2.73h7.34v2.3a6,6,0,0,0,1.19,3.64,4.64,4.64,0,0,0,4,1.62,6.39,6.39,0,0,0,2.91-.54,3.85,3.85,0,0,0,1.62-1.55,5.58,5.58,0,0,0,.69-2.41c.07-.94.11-2,.11-3.14a29.89,29.89,0,0,0-.15-3.31,5.79,5.79,0,0,0-.57-2.09,4,4,0,0,0-1.34-1.29,16,16,0,0,0-2.19-1.08l-5.26-2.16c-3.17-1.3-5.29-3-6.37-5.15a17.72,17.72,0,0,1-1.62-8,18.55,18.55,0,0,1,.79-5.47,12.32,12.32,0,0,1,2.38-4.46,10.84,10.84,0,0,1,3.85-3,12.77,12.77,0,0,1,5.58-1.12,12.21,12.21,0,0,1,5,1,12.92,12.92,0,0,1,3.93,2.66,11.13,11.13,0,0,1,3.31,7.92Z" transform="translate(-499.64 -152)"/>
	<path d="M792.21,783.82a4.13,4.13,0,0,0-1.72-1.88,6.93,6.93,0,0,0-3.32-.64h-3.81v17.42h3.53a7.54,7.54,0,0,0,3.45-.65,4,4,0,0,0,1.8-1.8,6.78,6.78,0,0,0,.69-2.66c.07-1.06.1-2.23.1-3.53s0-2.34-.07-3.42A7.28,7.28,0,0,0,792.21,783.82Z" transform="translate(-499.64 -152)"/>
	<path d="M617.77,606.15l-6.53-21.83H557l-6.53,21.83H499.64l56.48-154.8h57.82l56.48,154.8Zm-50.4-56.48h33.52l-16.2-55.12h-.9Z" transform="translate(-499.64 -152)"/>
	<path d="M783.28,491v115.2H733.55V491H682.7v-39.6H833.9V491Z" transform="translate(-499.64 -152)"/>
	<path d="M873.54,451.35h49.73v115.2h79.43v39.6H873.54Z" transform="translate(-499.64 -152)"/>
	<path d="M1156.44,606.15l-6.53-21.83h-54.22l-6.53,21.83h-50.85l56.48-154.8h57.82l56.48,154.8ZM1106,549.67h33.52l-16.2-55.12h-.9Z" transform="translate(-499.64 -152)"/>
	<path d="M1351.94,460.68q19.13,12,19.57,35.67v2.7h-46.57v-.9a14.57,14.57,0,0,0-5-11.25q-5-4.5-15.08-4.5-9.9,0-15.19,2.92t-5.28,7.2c0,4.05,2.39,7.05,7.2,9s12.52,4,23.17,6.08a251.31,251.31,0,0,1,30.72,8,52.39,52.39,0,0,1,21,13.62q9,9.45,9.23,25.65,0,27.45-18.57,40.72t-49.61,13.28q-36.22,0-56.36-12.15t-20.14-43h47q0,11.7,6.07,15.64t18.9,3.94a51.1,51.1,0,0,0,15.64-2q6.18-2,6.19-8.32,0-5.62-6.86-8.44t-22.39-6a257.89,257.89,0,0,1-31.28-8.44,52.79,52.79,0,0,1-21.6-14.51q-9.22-10.12-9.22-27.45,0-25.42,19.69-37.47t49.83-12Q1332.81,448.65,1351.94,460.68Z" transform="translate(-499.64 -152)"/>
	<path d="M622.24,366.68l116.12-.19a417.85,417.85,0,0,0-23.37,57h34a395.32,395.32,0,0,1,25.5-57.07l145-.24V423.5h35.66V366.13l138.7-.23a406.1,406.1,0,0,1,24.72,57.6h32.62a429.47,429.47,0,0,0-22.7-57.65l127.87-.21a344.65,344.65,0,0,1,25.87,57.86H1315C1266.27,266.57,1116.43,152,939.64,152S613,266.57,564.24,423.5H597A345.25,345.25,0,0,1,622.24,366.68Zm608.12-40.85-123.23.21a548.6,548.6,0,0,0-54.56-75.2,636.28,636.28,0,0,0-65.06-65.36C1086.84,198.36,1173.54,250.74,1230.36,325.83ZM955.23,198.53c28.26,23.31,75.87,67.4,115.29,127.57l-115.29.19ZM919.57,326.35l-120.63.19c41.21-60.39,91.07-104.64,120.63-128ZM884.74,186.44A649.79,649.79,0,0,0,818,250.84a549.83,549.83,0,0,0-57.29,75.77l-112.49.18A362.88,362.88,0,0,1,884.74,186.44Z" transform="translate(-499.64 -152)"/>
</svg>